<svg width="708" height="708" viewBox="0 0 708 708" fill="none" xmlns="http://www.w3.org/2000/svg">
<path d="M594.32 410.09C539.53 428.39 443.57 323.62 463.6 273.24C471.59 253.13 498.03 241.78 520.31 232.22C531.37 227.47 554.48 218.98 584.37 219.29C604.53 219.5 621.01 219.66 633.64 231.36C645.39 242.24 647.44 257.22 649.7 273.73C653.06 298.26 648.91 318.68 645.55 330.74C640.88 347.51 626.44 399.349 594.32 410.079V410.09Z" fill="white"/>
<path d="M647.45 256.58C648.21 257.49 648.62 260.45 649.41 266.33C649.68 268.35 649.96 270.71 650.5 275.41C650.85 278.44 650.99 279.78 651.12 281.58C651.25 283.39 651.33 285.16 651.37 287.45C651.45 291.78 651.42 297.78 651.18 301.69C650.15 318.77 645.52 333.49 642.75 342.32C642.07 344.49 640.08 350.69 636.95 358.57C634.8 363.99 632.93 368.68 629.79 374.67C627.45 379.12 624.43 384.81 619.22 391.3C615.71 395.68 613.16 398.85 608.7 401.82C608.7 401.82 602.78 405.77 595.26 407.28C576.8 410.99 508.71 365.73 519.27 324.28C524.95 301.98 552 286.57 563.11 280.05C572.57 274.5 585.57 268.8 587.47 267.97C598.1 263.33 604.81 261.2 613.58 258.42C613.58 258.42 622.46 255.61 635.99 254.33C642.35 253.73 645.57 254.33 647.46 256.59H647.45V256.58Z" fill="#6ACCFF"/>
<path d="M110.09 414.8C77.97 404.07 63.53 352.23 58.86 335.46C55.5 323.4 51.35 302.98 54.71 278.45C56.97 261.94 59.02 246.96 70.77 236.08C83.4 224.38 99.88 224.22 120.04 224.01C149.93 223.7 173.04 232.19 184.1 236.94C206.38 246.5 232.82 257.85 240.81 277.96C260.84 328.34 164.88 433.11 110.09 414.81V414.8Z" fill="white"/>
<path d="M56.9503 261.31C58.8403 259.05 62.0602 258.45 68.4202 259.05C81.9502 260.33 90.8303 263.14 90.8303 263.14C99.6003 265.92 106.31 268.05 116.94 272.69C118.84 273.52 131.84 279.22 141.3 284.77C152.41 291.29 179.46 306.7 185.14 329C195.7 370.45 127.61 415.71 109.15 412C101.63 410.49 95.7103 406.54 95.7103 406.54C91.2503 403.57 88.7002 400.4 85.1902 396.02C79.9802 389.53 76.9602 383.84 74.6202 379.39C71.4802 373.4 69.6103 368.71 67.4603 363.29C64.3303 355.41 62.3402 349.21 61.6602 347.04C58.8902 338.21 54.2602 323.49 53.2302 306.41C52.9902 302.5 52.9602 296.5 53.0402 292.17C53.0802 289.88 53.1602 288.11 53.2902 286.3C53.4202 284.5 53.5602 283.16 53.9102 280.13C54.4502 275.43 54.7302 273.07 55.0002 271.05C55.7902 265.17 56.2003 262.21 56.9603 261.3H56.9503V261.31Z" fill="#6ACCFF"/>
<path d="M366.64 170.05H340.83V238.78H366.64V170.05Z" fill="#303339"/>
<path d="M353.73 179.46C382.3 179.46 405.46 156.3 405.46 127.73C405.46 99.16 382.3 76 353.73 76C325.16 76 302 99.16 302 127.73C302 156.3 325.16 179.46 353.73 179.46Z" fill="#6ACCFF"/>
<path d="M354.32 229C496.81 229 612.56 317.62 614.61 427.54H614.64V461.12C614.28 555.28 510.23 631.58 381.73 632H327.98C198.99 632 94.3803 555.54 94.0103 461.12V427.54H94.0402C96.0902 317.62 211.84 229 354.33 229H354.32Z" fill="white"/>
<path d="M644.72 560.25C644.72 560.25 620.45 535.02 582 526.35" stroke="#2C2F38" stroke-width="40" stroke-linecap="round"/>
<path d="M667.24 463.75C667.24 463.75 635.17 449.7 596.32 456.37" stroke="#2C2F38" stroke-width="40" stroke-linecap="round"/>
<path d="M63.52 560.25C63.52 560.25 87.79 535.02 126.25 526.35" stroke="#2C2F38" stroke-width="40" stroke-linecap="round"/>
<path d="M41 463.75C41 463.75 73.07 449.7 111.92 456.37" stroke="#2C2F38" stroke-width="40" stroke-linecap="round"/>
<path d="M261 353H447C500.57 353 544 396.43 544 450C544 503.57 500.57 547 447 547H261C207.43 547 164 503.57 164 450C164 396.43 207.43 353 261 353Z" fill="#27333F"/>
<path d="M263.5 499C290.84 499 313 476.84 313 449.5C313 422.16 290.84 400 263.5 400C236.16 400 214 422.16 214 449.5C214 476.84 236.16 499 263.5 499Z" fill="#6ACCFF"/>
<path d="M444.5 499C471.84 499 494 476.84 494 449.5C494 422.16 471.84 400 444.5 400C417.16 400 395 422.16 395 449.5C395 476.84 417.16 499 444.5 499Z" fill="#6ACCFF"/>
</svg>
