<svg width="456" height="209" viewBox="0 0 456 209" fill="none" xmlns="http://www.w3.org/2000/svg">
<path d="M55.0402 159.2C39.9362 159.2 26.9655 153.909 16.1282 143.328C5.3762 132.747 0.000195265 119.947 0.000195265 104.928C0.000195265 89.9093 5.3762 77.0667 16.1282 66.4C26.9655 55.7333 39.9362 50.4 55.0402 50.4C70.1442 50.4 83.1149 55.7333 93.9522 66.4C104.79 77.0667 110.208 89.9093 110.208 104.928V159.2H55.0402ZM82.0482 104.928C82.0482 97.3333 79.4455 90.8053 74.2402 85.344C69.0349 79.8827 62.6349 77.152 55.0402 77.152C47.4455 77.152 41.0455 79.8827 35.8402 85.344C30.6349 90.8053 28.0322 97.3333 28.0322 104.928C28.0322 112.437 30.6349 118.923 35.8402 124.384C41.1309 129.76 47.5309 132.448 55.0402 132.448H82.0482V104.928ZM175.915 159.2C160.811 159.2 147.841 153.909 137.003 143.328C126.251 132.661 120.875 119.776 120.875 104.672V50.4C129.75 50.4 136.619 52.832 141.483 57.696C146.347 62.56 148.779 68.3627 148.779 75.104V104.672C148.779 112.181 151.425 118.709 156.715 124.256C162.006 129.717 168.406 132.448 175.915 132.448C183.425 132.448 189.782 129.717 194.987 124.256C200.278 118.709 202.923 112.181 202.923 104.672V75.104C202.923 68.3627 205.355 62.56 210.219 57.696C215.083 52.832 221.953 50.4 230.827 50.4V104.672C230.827 119.691 225.451 132.533 214.699 143.2C203.947 153.867 191.019 159.2 175.915 159.2ZM322.161 70.24C317.553 74.848 312.007 77.152 305.521 77.152H295.665C288.156 77.152 281.756 79.8827 276.465 85.344C271.175 90.72 268.529 97.1627 268.529 104.672V134.496C268.529 141.237 266.097 147.04 261.233 151.904C256.369 156.768 249.5 159.2 240.625 159.2V104.672C240.625 89.6533 246.001 76.8533 256.753 66.272C267.591 55.6907 280.561 50.4 295.665 50.4H329.073C329.073 59.0187 326.769 65.632 322.161 70.24ZM386.165 159.2C371.061 159.2 358.091 153.909 347.253 143.328C336.501 132.747 331.125 119.947 331.125 104.928C331.125 89.9093 336.501 77.0667 347.253 66.4C358.091 55.7333 371.061 50.4 386.165 50.4C401.269 50.4 414.24 55.7333 425.077 66.4C435.915 77.0667 441.333 89.9093 441.333 104.928V159.2H386.165ZM413.173 104.928C413.173 97.3333 410.571 90.8053 405.365 85.344C400.16 79.8827 393.76 77.152 386.165 77.152C378.571 77.152 372.171 79.8827 366.965 85.344C361.76 90.8053 359.157 97.3333 359.157 104.928C359.157 112.437 361.76 118.923 366.965 124.384C372.256 129.76 378.656 132.448 386.165 132.448H413.173V104.928Z" fill="#6ACCFF"/>
</svg>
